<?xml version="1.0" encoding="UTF-8"?>
<svg width="20px" height="20px" viewBox="0 0 20 20" version="1.1" xmlns="http://www.w3.org/2000/svg" xmlns:xlink="http://www.w3.org/1999/xlink">
    <!-- Generator: Sketch 54.1 (76490) - https://sketchapp.com -->
    <title>Facebook</title>
    <desc>Created with Sketch.</desc>
    <g id="Website" stroke="none" stroke-width="1" fill="none" fill-rule="evenodd">
        <g id="Nondualitee---Desktop" transform="translate(-41.000000, -520.000000)" fill="#FFFFFF">
            <g id="Facebook" transform="translate(41.000000, 520.000000)">
                <path d="M17.4365833,0 L2.56329167,0 C1.15491667,0 0,1.15495833 0,2.563375 L0,17.4365833 C0,18.8450833 1.15491667,20 2.56329167,20 L17.4365833,20 C18.8450417,20 20,18.8450833 20,17.436625 L20,2.563375 C20,1.15495833 18.8450417,0 17.4365833,0 Z M12.9667917,8.953125 L12.8710833,10 L10.875,10 L10.875,16.6666667 L8.20833333,16.6666667 L8.20833333,10 L6.875,10 L6.875,7.33333333 L8.20833333,7.33333333 L8.20833333,6.12341667 C8.20833333,5.03125 8.73016667,3.32483333 11.0192083,3.32483333 L13.0833333,3.33420833 L13.0833333,5.625 L11.5832083,5.625 C11.3395417,5.625 11,5.74216667 11,6.26183333 L11,7.33333333 L13.1142917,7.33333333 L12.9667917,8.953125 Z" id="facebook__x2C__social__x2C__media_x2C__icon_x2C_"></path>
            </g>
        </g>
    </g>
</svg>