<?xml version="1.0" encoding="UTF-8"?>
<svg width="20px" height="12px" viewBox="0 0 20 12" version="1.1" xmlns="http://www.w3.org/2000/svg" xmlns:xlink="http://www.w3.org/1999/xlink">
    <!-- Generator: Sketch 55.1 (78136) - https://sketchapp.com -->
    <title>Fast Forward</title>
    <desc>Created with Sketch.</desc>
    <g id="Website" stroke="none" stroke-width="1" fill="none" fill-rule="evenodd">
        <g id="Nondualitee---Desktop" transform="translate(-939.000000, -68.000000)" fill="#999999" fill-rule="nonzero">
            <g id="Fast-Forward" transform="translate(939.000000, 68.000000)">
                <path d="M10,10.8232 L10,1.1768 C10,0.4408 10.8016,-0.0144 11.4336,0.3616 L19.5368,5.1848 C20.1544,5.5528 20.1544,6.4472 19.5368,6.8152 L11.4336,11.6384 C11.1404256,11.8126672 10.7762757,11.8161746 10.4797991,11.6475866 C10.1833226,11.4789986 10.0001409,11.1642575 10,10.8232 L10,10.8232 Z" id="Path"></path>
                <path d="M0,10.8232 L0,1.1768 C0,0.4408 0.8016,-0.0144 1.4336,0.3616 L9.5368,5.1848 C10.1544,5.5528 10.1544,6.4472 9.5368,6.8152 L1.4336,11.6384 C1.14042564,11.8126672 0.776275737,11.8161746 0.479799149,11.6475866 C0.183322561,11.4789986 0.000140911545,11.1642575 0,10.8232 Z" id="Path"></path>
            </g>
        </g>
    </g>
</svg>